<svg xmlns="http://www.w3.org/2000/svg" width="1920" height="1080">
    <path d="M166,-213L415,-209L770,-246Z" fill="#d9f0d5" stroke="#d9f0d5" stroke-width="1.51"/>
    <path d="M-222,-223L166,-213L770,-246Z" fill="#e3f4dc" stroke="#e3f4dc" stroke-width="1.51"/>
    <path d="M775,1280L260,1328L1064,1313Z" fill="#678fa3" stroke="#678fa3" stroke-width="1.51"/>
    <path d="M-222,-223L770,-246L1075,-259Z" fill="#d4efd3" stroke="#d4efd3" stroke-width="1.51"/>
    <path d="M1064,1313L260,1328L1367,1337Z" fill="#5588a6" stroke="#5588a6" stroke-width="1.51"/>
    <path d="M1595,-188L1804,-158L1934,-167Z" fill="#92b2cb" stroke="#92b2cb" stroke-width="1.51"/>
    <path d="M1689,1322L1367,1337L2040,1323Z" fill="#16609f" stroke="#16609f" stroke-width="1.51"/>
    <path d="M1796,1290L1689,1322L2040,1323Z" fill="#0b5a9c" stroke="#0b5a9c" stroke-width="1.51"/>
    <path d="M2038,656L1949,832L2062,889Z" fill="#2f7db1" stroke="#2f7db1" stroke-width="1.51"/>
    <path d="M1595,-188L1934,-167L2100,-204Z" fill="#90acc9" stroke="#90acc9" stroke-width="1.51"/>
    <path d="M1075,-259L1595,-188L2100,-204Z" fill="#9abfd3" stroke="#9abfd3" stroke-width="1.51"/>
    <path d="M1899,1140L2105,1190L2122,1012Z" fill="#0f5fa1" stroke="#0f5fa1" stroke-width="1.51"/>
    <path d="M1960,933L1899,1140L2122,1012Z" fill="#186aa8" stroke="#186aa8" stroke-width="1.51"/>
    <path d="M1895,-56L2057,107L2123,-97Z" fill="#849db5" stroke="#849db5" stroke-width="1.51"/>
    <path d="M2057,107L2091,209L2123,-97Z" fill="#7e96ac" stroke="#7e96ac" stroke-width="1.51"/>
    <path d="M1948,550L2038,656L2130,567Z" fill="#4a89ad" stroke="#4a89ad" stroke-width="1.51"/>
    <path d="M2062,367L1956,428L2130,567Z" fill="#5c8da8" stroke="#5c8da8" stroke-width="1.51"/>
    <path d="M1956,428L1948,550L2130,567Z" fill="#548ead" stroke="#548ead" stroke-width="1.51"/>
    <path d="M2062,889L2122,1012L2130,567Z" fill="#2c74aa" stroke="#2c74aa" stroke-width="1.51"/>
    <path d="M2038,656L2062,889L2130,567Z" fill="#3a7fae" stroke="#3a7fae" stroke-width="1.51"/>
    <path d="M2091,209L2062,367L2130,567Z" fill="#648da3" stroke="#648da3" stroke-width="1.51"/>
    <path d="M2123,-97L2091,209L2130,567Z" fill="#7291a3" stroke="#7291a3" stroke-width="1.51"/>
    <path d="M1932,711L1949,832L2038,656Z" fill="#3686b7" stroke="#3686b7" stroke-width="1.51"/>
    <path d="M1968,1252L2040,1323L2105,1190Z" fill="#0a5295" stroke="#0a5295" stroke-width="1.51"/>
    <path d="M2062,889L1960,933L2122,1012Z" fill="#1f6da8" stroke="#1f6da8" stroke-width="1.51"/>
    <path d="M2100,-204L1934,-167L2123,-97Z" fill="#8a9dba" stroke="#8a9dba" stroke-width="1.51"/>
    <path d="M1934,-167L1895,-56L2123,-97Z" fill="#89a1bd" stroke="#89a1bd" stroke-width="1.51"/>
    <path d="M1918,254L2062,367L2091,209Z" fill="#7096a8" stroke="#7096a8" stroke-width="1.51"/>
    <path d="M1899,1140L1968,1252L2105,1190Z" fill="#0a5b9f" stroke="#0a5b9f" stroke-width="1.51"/>
    <path d="M1895,-56L1891,78L2057,107Z" fill="#83a1b8" stroke="#83a1b8" stroke-width="1.51"/>
    <path d="M2057,107L1918,254L2091,209Z" fill="#7899ac" stroke="#7899ac" stroke-width="1.51"/>
    <path d="M1891,78L1918,254L2057,107Z" fill="#7e9fb2" stroke="#7e9fb2" stroke-width="1.51"/>
    <path d="M1949,832L1960,933L2062,889Z" fill="#2677af" stroke="#2677af" stroke-width="1.51"/>
    <path d="M1918,254L1956,428L2062,367Z" fill="#6a97aa" stroke="#6a97aa" stroke-width="1.51"/>
    <path d="M1948,550L1932,711L2038,656Z" fill="#458bb4" stroke="#458bb4" stroke-width="1.51"/>
    <path d="M1968,1252L1796,1290L2040,1323Z" fill="#095699" stroke="#095699" stroke-width="1.51"/>
    <path d="M1128,-226L1308,-163L1595,-188Z" fill="#a3cfda" stroke="#a3cfda" stroke-width="1.51"/>
    <path d="M1075,-259L1128,-226L1595,-188Z" fill="#a8d5df" stroke="#a8d5df" stroke-width="1.51"/>
    <path d="M1784,293L1769,365L1918,254Z" fill="#73a3b4" stroke="#73a3b4" stroke-width="1.51"/>
    <path d="M1797,504L1932,711L1948,550Z" fill="#4c93b8" stroke="#4c93b8" stroke-width="1.51"/>
    <path d="M1918,254L1769,365L1956,428Z" fill="#6d9eb1" stroke="#6d9eb1" stroke-width="1.51"/>
    <path d="M1797,504L1948,550L1956,428Z" fill="#5997b4" stroke="#5997b4" stroke-width="1.51"/>
    <path d="M1949,832L1794,964L1960,933Z" fill="#237bb4" stroke="#237bb4" stroke-width="1.51"/>
    <path d="M1794,964L1899,1140L1960,933Z" fill="#1973b0" stroke="#1973b0" stroke-width="1.51"/>
    <path d="M1899,1140L1796,1290L1968,1252Z" fill="#095fa2" stroke="#095fa2" stroke-width="1.51"/>
    <path d="M1797,504L1775,742L1932,711Z" fill="#4593bd" stroke="#4593bd" stroke-width="1.51"/>
    <path d="M1932,711L1775,742L1949,832Z" fill="#338abc" stroke="#338abc" stroke-width="1.51"/>
    <path d="M1836,47L1891,78L1895,-56Z" fill="#86a7be" stroke="#86a7be" stroke-width="1.51"/>
    <path d="M1837,-110L1895,-56L1934,-167Z" fill="#8ca9c4" stroke="#8ca9c4" stroke-width="1.51"/>
    <path d="M1769,365L1797,504L1956,428Z" fill="#639eb6" stroke="#639eb6" stroke-width="1.51"/>
    <path d="M1794,964L1756,1089L1899,1140Z" fill="#1872b2" stroke="#1872b2" stroke-width="1.51"/>
    <path d="M1737,876L1794,964L1949,832Z" fill="#2781b9" stroke="#2781b9" stroke-width="1.51"/>
    <path d="M1775,742L1737,876L1949,832Z" fill="#2f88bd" stroke="#2f88bd" stroke-width="1.51"/>
    <path d="M1891,78L1784,293L1918,254Z" fill="#7aa4b6" stroke="#7aa4b6" stroke-width="1.51"/>
    <path d="M1804,-158L1837,-110L1934,-167Z" fill="#8eacc8" stroke="#8eacc8" stroke-width="1.51"/>
    <path d="M1836,47L1784,293L1891,78Z" fill="#81a8ba" stroke="#81a8ba" stroke-width="1.51"/>
    <path d="M1756,1089L1796,1290L1899,1140Z" fill="#0d69ac" stroke="#0d69ac" stroke-width="1.51"/>
    <path d="M1636,104L1784,293L1836,47Z" fill="#83adbc" stroke="#83adbc" stroke-width="1.51"/>
    <path d="M1837,-110L1836,47L1895,-56Z" fill="#89a9c3" stroke="#89a9c3" stroke-width="1.51"/>
    <path d="M1308,-163L1502,-159L1595,-188Z" fill="#9cc6d4" stroke="#9cc6d4" stroke-width="1.51"/>
    <path d="M1756,1089L1659,1120L1796,1290Z" fill="#136eaf" stroke="#136eaf" stroke-width="1.51"/>
    <path d="M1610,651L1775,742L1797,504Z" fill="#4b9cc0" stroke="#4b9cc0" stroke-width="1.51"/>
    <path d="M1630,-29L1836,47L1837,-110Z" fill="#8bafc5" stroke="#8bafc5" stroke-width="1.51"/>
    <path d="M1804,-158L1630,-29L1837,-110Z" fill="#8fb1c8" stroke="#8fb1c8" stroke-width="1.51"/>
    <path d="M1636,104L1626,274L1784,293Z" fill="#7eafbc" stroke="#7eafbc" stroke-width="1.51"/>
    <path d="M1630,-29L1636,104L1836,47Z" fill="#8ab2c3" stroke="#8ab2c3" stroke-width="1.51"/>
    <path d="M1634,391L1639,492L1769,365Z" fill="#69a8ba" stroke="#69a8ba" stroke-width="1.51"/>
    <path d="M1666,969L1756,1089L1794,964Z" fill="#207cb6" stroke="#207cb6" stroke-width="1.51"/>
    <path d="M1659,1120L1689,1322L1796,1290Z" fill="#1668a7" stroke="#1668a7" stroke-width="1.51"/>
    <path d="M1769,365L1639,492L1797,504Z" fill="#63a4ba" stroke="#63a4ba" stroke-width="1.51"/>
    <path d="M1639,492L1610,651L1797,504Z" fill="#56a3be" stroke="#56a3be" stroke-width="1.51"/>
    <path d="M1595,-188L1630,-29L1804,-158Z" fill="#93b7cc" stroke="#93b7cc" stroke-width="1.51"/>
    <path d="M1737,876L1666,969L1794,964Z" fill="#2683ba" stroke="#2683ba" stroke-width="1.51"/>
    <path d="M1626,274L1769,365L1784,293Z" fill="#74aab7" stroke="#74aab7" stroke-width="1.51"/>
    <path d="M1449,1284L1367,1337L1689,1322Z" fill="#236ea6" stroke="#236ea6" stroke-width="1.51"/>
    <path d="M1626,274L1634,391L1769,365Z" fill="#72abb8" stroke="#72abb8" stroke-width="1.51"/>
    <path d="M1585,895L1737,876L1775,742Z" fill="#328ec0" stroke="#328ec0" stroke-width="1.51"/>
    <path d="M1610,651L1585,895L1775,742Z" fill="#3a98c5" stroke="#3a98c5" stroke-width="1.51"/>
    <path d="M1666,969L1659,1120L1756,1089Z" fill="#1f7ab6" stroke="#1f7ab6" stroke-width="1.51"/>
    <path d="M1585,895L1666,969L1737,876Z" fill="#2c89bd" stroke="#2c89bd" stroke-width="1.51"/>
    <path d="M1456,828L1585,895L1610,651Z" fill="#3b9bc7" stroke="#3b9bc7" stroke-width="1.51"/>
    <path d="M1471,687L1456,828L1610,651Z" fill="#45a4c9" stroke="#45a4c9" stroke-width="1.51"/>
    <path d="M1595,-188L1534,-104L1630,-29Z" fill="#94bdce" stroke="#94bdce" stroke-width="1.51"/>
    <path d="M1530,1119L1659,1120L1666,969Z" fill="#217eb8" stroke="#217eb8" stroke-width="1.51"/>
    <path d="M1659,1120L1530,1119L1689,1322Z" fill="#1b73b0" stroke="#1b73b0" stroke-width="1.51"/>
    <path d="M1530,1119L1449,1284L1689,1322Z" fill="#1f72ac" stroke="#1f72ac" stroke-width="1.51"/>
    <path d="M19,1273L-124,1255L260,1328Z" fill="#869cb7" stroke="#869cb7" stroke-width="1.51"/>
    <path d="M1585,895L1530,1119L1666,969Z" fill="#2786bb" stroke="#2786bb" stroke-width="1.51"/>
    <path d="M1456,86L1626,274L1636,104Z" fill="#87b8c1" stroke="#87b8c1" stroke-width="1.51"/>
    <path d="M1472,503L1610,651L1639,492Z" fill="#59aac1" stroke="#59aac1" stroke-width="1.51"/>
    <path d="M1428,964L1530,1119L1585,895Z" fill="#2c8bbe" stroke="#2c8bbe" stroke-width="1.51"/>
    <path d="M1456,86L1448,287L1626,274Z" fill="#84bac0" stroke="#84bac0" stroke-width="1.51"/>
    <path d="M1450,396L1472,503L1634,391Z" fill="#6cb2bf" stroke="#6cb2bf" stroke-width="1.51"/>
    <path d="M1626,274L1448,287L1634,391Z" fill="#78b3bb" stroke="#78b3bb" stroke-width="1.51"/>
    <path d="M1448,287L1450,396L1634,391Z" fill="#75b6bd" stroke="#75b6bd" stroke-width="1.51"/>
    <path d="M1630,-29L1456,86L1636,104Z" fill="#8dbac6" stroke="#8dbac6" stroke-width="1.51"/>
    <path d="M1634,391L1472,503L1639,492Z" fill="#65adbe" stroke="#65adbe" stroke-width="1.51"/>
    <path d="M1534,-104L1456,86L1630,-29Z" fill="#91bfca" stroke="#91bfca" stroke-width="1.51"/>
    <path d="M1472,503L1471,687L1610,651Z" fill="#53aac5" stroke="#53aac5" stroke-width="1.51"/>
    <path d="M1502,-159L1534,-104L1595,-188Z" fill="#98c0d1" stroke="#98c0d1" stroke-width="1.51"/>
    <path d="M1456,828L1428,964L1585,895Z" fill="#3596c4" stroke="#3596c4" stroke-width="1.51"/>
    <path d="M1377,1045L1449,1284L1530,1119Z" fill="#2882ba" stroke="#2882ba" stroke-width="1.51"/>
    <path d="M1428,964L1377,1045L1530,1119Z" fill="#2e8bbe" stroke="#2e8bbe" stroke-width="1.51"/>
    <path d="M1367,85L1456,86L1534,-104Z" fill="#93c3cc" stroke="#93c3cc" stroke-width="1.51"/>
    <path d="M1502,-159L1283,-108L1534,-104Z" fill="#9bc7d3" stroke="#9bc7d3" stroke-width="1.51"/>
    <path d="M1283,-108L1367,85L1534,-104Z" fill="#99c9d1" stroke="#99c9d1" stroke-width="1.51"/>
    <path d="M1377,1045L1301,1102L1449,1284Z" fill="#2e87bc" stroke="#2e87bc" stroke-width="1.51"/>
    <path d="M1360,662L1471,687L1472,503Z" fill="#57afc9" stroke="#57afc9" stroke-width="1.51"/>
    <path d="M1337,566L1360,662L1472,503Z" fill="#5db4c9" stroke="#5db4c9" stroke-width="1.51"/>
    <path d="M1367,85L1448,287L1456,86Z" fill="#8dc2c6" stroke="#8dc2c6" stroke-width="1.51"/>
    <path d="M1308,-163L1283,-108L1502,-159Z" fill="#9fcdd7" stroke="#9fcdd7" stroke-width="1.51"/>
    <path d="M610,1262L260,1328L775,1280Z" fill="#7194a7" stroke="#7194a7" stroke-width="1.51"/>
    <path d="M1367,85L1291,256L1448,287Z" fill="#8ac4c6" stroke="#8ac4c6" stroke-width="1.51"/>
    <path d="M1299,862L1428,964L1456,828Z" fill="#3c9dc7" stroke="#3c9dc7" stroke-width="1.51"/>
    <path d="M1360,662L1456,828L1471,687Z" fill="#49a9cd" stroke="#49a9cd" stroke-width="1.51"/>
    <path d="M1450,396L1342,397L1472,503Z" fill="#70b9c3" stroke="#70b9c3" stroke-width="1.51"/>
    <path d="M1342,397L1337,566L1472,503Z" fill="#69b9c5" stroke="#69b9c5" stroke-width="1.51"/>
    <path d="M1448,287L1342,397L1450,396Z" fill="#79bcc0" stroke="#79bcc0" stroke-width="1.51"/>
    <path d="M1360,662L1299,862L1456,828Z" fill="#45a8cd" stroke="#45a8cd" stroke-width="1.51"/>
    <path d="M1301,1102L1367,1337L1449,1284Z" fill="#2d7db3" stroke="#2d7db3" stroke-width="1.51"/>
    <path d="M1283,-108L1240,-11L1367,85Z" fill="#9bced3" stroke="#9bced3" stroke-width="1.51"/>
    <path d="M1291,256L1342,397L1448,287Z" fill="#81c1c2" stroke="#81c1c2" stroke-width="1.51"/>
    <path d="M1129,1283L1064,1313L1367,1337Z" fill="#3b7fad" stroke="#3b7fad" stroke-width="1.51"/>
    <path d="M1301,1102L1213,1142L1367,1337Z" fill="#3387bb" stroke="#3387bb" stroke-width="1.51"/>
    <path d="M1299,862L1377,1045L1428,964Z" fill="#3898c5" stroke="#3898c5" stroke-width="1.51"/>
    <path d="M1193,536L1337,566L1342,397Z" fill="#6cbfc9" stroke="#6cbfc9" stroke-width="1.51"/>
    <path d="M1138,675L1299,862L1360,662Z" fill="#50b3d3" stroke="#50b3d3" stroke-width="1.51"/>
    <path d="M1213,1142L1129,1283L1367,1337Z" fill="#3783b5" stroke="#3783b5" stroke-width="1.51"/>
    <path d="M1176,140L1291,256L1367,85Z" fill="#92cccb" stroke="#92cccb" stroke-width="1.51"/>
    <path d="M1222,891L1301,1102L1377,1045Z" fill="#3997c5" stroke="#3997c5" stroke-width="1.51"/>
    <path d="M1299,862L1222,891L1377,1045Z" fill="#3d9fc8" stroke="#3d9fc8" stroke-width="1.51"/>
    <path d="M1222,891L1147,1013L1301,1102Z" fill="#409cc6" stroke="#409cc6" stroke-width="1.51"/>
    <path d="M1204,396L1193,536L1342,397Z" fill="#76c4c8" stroke="#76c4c8" stroke-width="1.51"/>
    <path d="M1240,-11L1176,140L1367,85Z" fill="#99d0d0" stroke="#99d0d0" stroke-width="1.51"/>
    <path d="M1193,536L1138,675L1337,566Z" fill="#64becd" stroke="#64becd" stroke-width="1.51"/>
    <path d="M1291,256L1204,396L1342,397Z" fill="#80c6c5" stroke="#80c6c5" stroke-width="1.51"/>
    <path d="M1337,566L1138,675L1360,662Z" fill="#5cb8cf" stroke="#5cb8cf" stroke-width="1.51"/>
    <path d="M1138,675L1222,891L1299,862Z" fill="#4daecf" stroke="#4daecf" stroke-width="1.51"/>
    <path d="M1147,1013L1213,1142L1301,1102Z" fill="#3d95c2" stroke="#3d95c2" stroke-width="1.51"/>
    <path d="M1128,-226L1283,-108L1308,-163Z" fill="#a6d6db" stroke="#a6d6db" stroke-width="1.51"/>
    <path d="M1140,236L1204,396L1291,256Z" fill="#89cbc5" stroke="#89cbc5" stroke-width="1.51"/>
    <path d="M1176,140L1140,236L1291,256Z" fill="#92cec8" stroke="#92cec8" stroke-width="1.51"/>
    <path d="M1128,-226L1240,-11L1283,-108Z" fill="#a5d6d8" stroke="#a5d6d8" stroke-width="1.51"/>
    <path d="M1140,236L1087,287L1204,396Z" fill="#8ccec2" stroke="#8ccec2" stroke-width="1.51"/>
    <path d="M1138,675L983,847L1222,891Z" fill="#57b3cd" stroke="#57b3cd" stroke-width="1.51"/>
    <path d="M1128,-226L1016,-27L1240,-11Z" fill="#a8d8d5" stroke="#a8d8d5" stroke-width="1.51"/>
    <path d="M1016,-27L1065,76L1240,-11Z" fill="#a4d7ce" stroke="#a4d7ce" stroke-width="1.51"/>
    <path d="M1065,76L1176,140L1240,-11Z" fill="#9fd4cd" stroke="#9fd4cd" stroke-width="1.51"/>
    <path d="M770,-246L920,-214L1075,-259Z" fill="#bce4d6" stroke="#bce4d6" stroke-width="1.51"/>
    <path d="M983,847L1082,984L1222,891Z" fill="#52aac7" stroke="#52aac7" stroke-width="1.51"/>
    <path d="M1082,984L1147,1013L1222,891Z" fill="#49a3c6" stroke="#49a3c6" stroke-width="1.51"/>
    <path d="M990,522L1193,536L1204,396Z" fill="#77c7c7" stroke="#77c7c7" stroke-width="1.51"/>
    <path d="M987,368L990,522L1204,396Z" fill="#83ccc3" stroke="#83ccc3" stroke-width="1.51"/>
    <path d="M1147,1013L1001,1135L1213,1142Z" fill="#4798bf" stroke="#4798bf" stroke-width="1.51"/>
    <path d="M1001,1135L1129,1283L1213,1142Z" fill="#458fb9" stroke="#458fb9" stroke-width="1.51"/>
    <path d="M1083,664L983,847L1138,675Z" fill="#61bcce" stroke="#61bcce" stroke-width="1.51"/>
    <path d="M1083,664L1138,675L1193,536Z" fill="#67bfcc" stroke="#67bfcc" stroke-width="1.51"/>
    <path d="M1087,287L987,368L1204,396Z" fill="#8acec1" stroke="#8acec1" stroke-width="1.51"/>
    <path d="M990,522L1083,664L1193,536Z" fill="#70c4c9" stroke="#70c4c9" stroke-width="1.51"/>
    <path d="M1065,76L1140,236L1176,140Z" fill="#9bd3c8" stroke="#9bd3c8" stroke-width="1.51"/>
    <path d="M1075,-259L938,-100L1128,-226Z" fill="#b2ded7" stroke="#b2ded7" stroke-width="1.51"/>
    <path d="M938,-100L1016,-27L1128,-226Z" fill="#afddd3" stroke="#afddd3" stroke-width="1.51"/>
    <path d="M1001,1135L1064,1313L1129,1283Z" fill="#488bb2" stroke="#488bb2" stroke-width="1.51"/>
    <path d="M1065,76L1087,287L1140,236Z" fill="#99d3c5" stroke="#99d3c5" stroke-width="1.51"/>
    <path d="M1082,984L1001,1135L1147,1013Z" fill="#4d9ec0" stroke="#4d9ec0" stroke-width="1.51"/>
    <path d="M1065,76L867,234L1087,287Z" fill="#9dd7c3" stroke="#9dd7c3" stroke-width="1.51"/>
    <path d="M865,1245L775,1280L1064,1313Z" fill="#568dab" stroke="#568dab" stroke-width="1.51"/>
    <path d="M1001,1135L865,1245L1064,1313Z" fill="#5090b2" stroke="#5090b2" stroke-width="1.51"/>
    <path d="M875,62L867,234L1065,76Z" fill="#a8dcc4" stroke="#a8dcc4" stroke-width="1.51"/>
    <path d="M920,-214L938,-100L1075,-259Z" fill="#b6e2d5" stroke="#b6e2d5" stroke-width="1.51"/>
    <path d="M886,1044L1001,1135L1082,984Z" fill="#54a0be" stroke="#54a0be" stroke-width="1.51"/>
    <path d="M990,522L889,702L1083,664Z" fill="#71c5c8" stroke="#71c5c8" stroke-width="1.51"/>
    <path d="M889,702L983,847L1083,664Z" fill="#66bfcc" stroke="#66bfcc" stroke-width="1.51"/>
    <path d="M867,234L987,368L1087,287Z" fill="#96d5bf" stroke="#96d5bf" stroke-width="1.51"/>
    <path d="M983,847L918,862L1082,984Z" fill="#5bafc5" stroke="#5bafc5" stroke-width="1.51"/>
    <path d="M918,862L886,1044L1082,984Z" fill="#5aaac1" stroke="#5aaac1" stroke-width="1.51"/>
    <path d="M1016,-27L875,62L1065,76Z" fill="#a9dcca" stroke="#a9dcca" stroke-width="1.51"/>
    <path d="M468,1257L260,1328L610,1262Z" fill="#7897aa" stroke="#7897aa" stroke-width="1.51"/>
    <path d="M889,702L918,862L983,847Z" fill="#67bbc8" stroke="#67bbc8" stroke-width="1.51"/>
    <path d="M867,234L913,372L987,368Z" fill="#97d6bc" stroke="#97d6bc" stroke-width="1.51"/>
    <path d="M987,368L913,372L990,522Z" fill="#89d1c0" stroke="#89d1c0" stroke-width="1.51"/>
    <path d="M913,372L878,491L990,522Z" fill="#88d0c0" stroke="#88d0c0" stroke-width="1.51"/>
    <path d="M878,491L889,702L990,522Z" fill="#7ccbc4" stroke="#7ccbc4" stroke-width="1.51"/>
    <path d="M938,-100L875,62L1016,-27Z" fill="#aedfcc" stroke="#aedfcc" stroke-width="1.51"/>
    <path d="M886,1044L852,1095L1001,1135Z" fill="#5aa0bb" stroke="#5aa0bb" stroke-width="1.51"/>
    <path d="M852,1095L865,1245L1001,1135Z" fill="#589ab7" stroke="#589ab7" stroke-width="1.51"/>
    <path d="M878,491L755,547L889,702Z" fill="#82cdc3" stroke="#82cdc3" stroke-width="1.51"/>
    <path d="M759,1009L886,1044L918,862Z" fill="#64adbe" stroke="#64adbe" stroke-width="1.51"/>
    <path d="M889,702L783,818L918,862Z" fill="#6ebdc7" stroke="#6ebdc7" stroke-width="1.51"/>
    <path d="M920,-214L751,-102L938,-100Z" fill="#bae4d0" stroke="#bae4d0" stroke-width="1.51"/>
    <path d="M751,-102L875,62L938,-100Z" fill="#b6e2cb" stroke="#b6e2cb" stroke-width="1.51"/>
    <path d="M773,96L867,234L875,62Z" fill="#aedfc2" stroke="#aedfc2" stroke-width="1.51"/>
    <path d="M727,413L878,491L913,372Z" fill="#92d4bd" stroke="#92d4bd" stroke-width="1.51"/>
    <path d="M867,234L727,413L913,372Z" fill="#9bd8ba" stroke="#9bd8ba" stroke-width="1.51"/>
    <path d="M783,818L759,1009L918,862Z" fill="#6cb4c1" stroke="#6cb4c1" stroke-width="1.51"/>
    <path d="M770,-246L751,-102L920,-214Z" fill="#c0e6d1" stroke="#c0e6d1" stroke-width="1.51"/>
    <path d="M755,547L729,684L889,702Z" fill="#81cac4" stroke="#81cac4" stroke-width="1.51"/>
    <path d="M852,1095L731,1103L865,1245Z" fill="#629db6" stroke="#629db6" stroke-width="1.51"/>
    <path d="M751,-102L773,96L875,62Z" fill="#b6e2c6" stroke="#b6e2c6" stroke-width="1.51"/>
    <path d="M729,684L783,818L889,702Z" fill="#77c4c7" stroke="#77c4c7" stroke-width="1.51"/>
    <path d="M731,1103L775,1280L865,1245Z" fill="#6298b0" stroke="#6298b0" stroke-width="1.51"/>
    <path d="M759,1009L852,1095L886,1044Z" fill="#64a6bb" stroke="#64a6bb" stroke-width="1.51"/>
    <path d="M773,96L699,183L867,234Z" fill="#aedfbf" stroke="#aedfbf" stroke-width="1.51"/>
    <path d="M699,183L727,413L867,234Z" fill="#a6dcba" stroke="#a6dcba" stroke-width="1.51"/>
    <path d="M727,413L755,547L878,491Z" fill="#90d3be" stroke="#90d3be" stroke-width="1.51"/>
    <path d="M759,1009L731,1103L852,1095Z" fill="#68a5b8" stroke="#68a5b8" stroke-width="1.51"/>
    <path d="M699,183L619,354L727,413Z" fill="#a8ddb6" stroke="#a8ddb6" stroke-width="1.51"/>
    <path d="M621,1130L610,1262L731,1103Z" fill="#6fa0b1" stroke="#6fa0b1" stroke-width="1.51"/>
    <path d="M545,829L543,1009L759,1009Z" fill="#79b5bb" stroke="#79b5bb" stroke-width="1.51"/>
    <path d="M583,-154L751,-102L770,-246Z" fill="#c6e9cd" stroke="#c6e9cd" stroke-width="1.51"/>
    <path d="M415,-209L583,-154L770,-246Z" fill="#d0ecd0" stroke="#d0ecd0" stroke-width="1.51"/>
    <path d="M751,-102L547,-36L773,96Z" fill="#bfe6c5" stroke="#bfe6c5" stroke-width="1.51"/>
    <path d="M547,-36L598,141L773,96Z" fill="#bfe6c0" stroke="#bfe6c0" stroke-width="1.51"/>
    <path d="M731,1103L610,1262L775,1280Z" fill="#6999ad" stroke="#6999ad" stroke-width="1.51"/>
    <path d="M729,684L633,718L783,818Z" fill="#7fc7c6" stroke="#7fc7c6" stroke-width="1.51"/>
    <path d="M545,829L759,1009L783,818Z" fill="#77b9bf" stroke="#77b9bf" stroke-width="1.51"/>
    <path d="M633,718L545,829L783,818Z" fill="#81c4c3" stroke="#81c4c3" stroke-width="1.51"/>
    <path d="M598,141L699,183L773,96Z" fill="#b7e3bd" stroke="#b7e3bd" stroke-width="1.51"/>
    <path d="M579,269L619,354L699,183Z" fill="#afe0b8" stroke="#afe0b8" stroke-width="1.51"/>
    <path d="M553,580L729,684L755,547Z" fill="#8cd0c0" stroke="#8cd0c0" stroke-width="1.51"/>
    <path d="M727,413L553,580L755,547Z" fill="#95d5bc" stroke="#95d5bc" stroke-width="1.51"/>
    <path d="M621,1130L731,1103L759,1009Z" fill="#6ea6b6" stroke="#6ea6b6" stroke-width="1.51"/>
    <path d="M543,1009L621,1130L759,1009Z" fill="#74abb7" stroke="#74abb7" stroke-width="1.51"/>
    <path d="M583,-154L547,-36L751,-102Z" fill="#c7eaca" stroke="#c7eaca" stroke-width="1.51"/>
    <path d="M553,580L633,718L729,684Z" fill="#8bcdc2" stroke="#8bcdc2" stroke-width="1.51"/>
    <path d="M619,354L553,580L727,413Z" fill="#9ed8ba" stroke="#9ed8ba" stroke-width="1.51"/>
    <path d="M598,141L579,269L699,183Z" fill="#b6e3bb" stroke="#b6e3bb" stroke-width="1.51"/>
    <path d="M463,886L543,1009L545,829Z" fill="#82bbc1" stroke="#82bbc1" stroke-width="1.51"/>
    <path d="M415,437L553,580L619,354Z" fill="#a4dbbd" stroke="#a4dbbd" stroke-width="1.51"/>
    <path d="M468,1257L610,1262L621,1130Z" fill="#739cae" stroke="#739cae" stroke-width="1.51"/>
    <path d="M553,580L467,699L633,718Z" fill="#90cfc4" stroke="#90cfc4" stroke-width="1.51"/>
    <path d="M467,699L545,829L633,718Z" fill="#8acac8" stroke="#8acac8" stroke-width="1.51"/>
    <path d="M543,1009L405,1104L621,1130Z" fill="#7baab9" stroke="#7baab9" stroke-width="1.51"/>
    <path d="M405,1104L468,1257L621,1130Z" fill="#79a3b6" stroke="#79a3b6" stroke-width="1.51"/>
    <path d="M547,-36L394,33L598,141Z" fill="#c7e9c5" stroke="#c7e9c5" stroke-width="1.51"/>
    <path d="M579,269L415,437L619,354Z" fill="#aedfb8" stroke="#aedfb8" stroke-width="1.51"/>
    <path d="M482,595L467,699L553,580Z" fill="#97d3c4" stroke="#97d3c4" stroke-width="1.51"/>
    <path d="M448,250L415,437L579,269Z" fill="#b5e2ba" stroke="#b5e2ba" stroke-width="1.51"/>
    <path d="M448,250L579,269L598,141Z" fill="#b9e4bc" stroke="#b9e4bc" stroke-width="1.51"/>
    <path d="M415,437L482,595L553,580Z" fill="#9ed8c1" stroke="#9ed8c1" stroke-width="1.51"/>
    <path d="M394,33L448,250L598,141Z" fill="#c4e8c1" stroke="#c4e8c1" stroke-width="1.51"/>
    <path d="M457,-55L547,-36L583,-154Z" fill="#ccebcb" stroke="#ccebcb" stroke-width="1.51"/>
    <path d="M415,-209L457,-55L583,-154Z" fill="#d2eecf" stroke="#d2eecf" stroke-width="1.51"/>
    <path d="M-222,-223L-55,-186L166,-213Z" fill="#ebf8e5" stroke="#ebf8e5" stroke-width="1.51"/>
    <path d="M463,886L422,1018L543,1009Z" fill="#82b6bf" stroke="#82b6bf" stroke-width="1.51"/>
    <path d="M422,1018L405,1104L543,1009Z" fill="#81b0bc" stroke="#81b0bc" stroke-width="1.51"/>
    <path d="M457,-55L394,33L547,-36Z" fill="#cdecca" stroke="#cdecca" stroke-width="1.51"/>
    <path d="M467,699L463,886L545,829Z" fill="#8ac6c6" stroke="#8ac6c6" stroke-width="1.51"/>
    <path d="M166,-213L236,-180L415,-209Z" fill="#e0f3d9" stroke="#e0f3d9" stroke-width="1.51"/>
    <path d="M394,33L268,212L448,250Z" fill="#c9e9c3" stroke="#c9e9c3" stroke-width="1.51"/>
    <path d="M279,403L415,437L448,250Z" fill="#b6e3bd" stroke="#b6e3bd" stroke-width="1.51"/>
    <path d="M261,814L463,886L467,699Z" fill="#91c8c9" stroke="#91c8c9" stroke-width="1.51"/>
    <path d="M257,739L261,814L467,699Z" fill="#97cece" stroke="#97cece" stroke-width="1.51"/>
    <path d="M284,566L467,699L482,595Z" fill="#9dd5c6" stroke="#9dd5c6" stroke-width="1.51"/>
    <path d="M415,437L284,566L482,595Z" fill="#a5dbc3" stroke="#a5dbc3" stroke-width="1.51"/>
    <path d="M279,60L268,212L394,33Z" fill="#cfecc8" stroke="#cfecc8" stroke-width="1.51"/>
    <path d="M415,-209L229,-76L457,-55Z" fill="#d8f0d2" stroke="#d8f0d2" stroke-width="1.51"/>
    <path d="M249,950L422,1018L463,886Z" fill="#89bac2" stroke="#89bac2" stroke-width="1.51"/>
    <path d="M284,566L257,739L467,699Z" fill="#9dd4ca" stroke="#9dd4ca" stroke-width="1.51"/>
    <path d="M405,1104L290,1132L468,1257Z" fill="#80a6b9" stroke="#80a6b9" stroke-width="1.51"/>
    <path d="M290,1132L260,1328L468,1257Z" fill="#7f9eb2" stroke="#7f9eb2" stroke-width="1.51"/>
    <path d="M261,814L249,950L463,886Z" fill="#8fc1c7" stroke="#8fc1c7" stroke-width="1.51"/>
    <path d="M126,1278L19,1273L260,1328Z" fill="#839bb3" stroke="#839bb3" stroke-width="1.51"/>
    <path d="M268,212L279,403L448,250Z" fill="#bfe6c0" stroke="#bfe6c0" stroke-width="1.51"/>
    <path d="M229,-76L394,33L457,-55Z" fill="#d4eecd" stroke="#d4eecd" stroke-width="1.51"/>
    <path d="M236,-180L229,-76L415,-209Z" fill="#ddf2d6" stroke="#ddf2d6" stroke-width="1.51"/>
    <path d="M279,403L284,566L415,437Z" fill="#aedfc3" stroke="#aedfc3" stroke-width="1.51"/>
    <path d="M290,1132L405,1104L422,1018Z" fill="#84adbc" stroke="#84adbc" stroke-width="1.51"/>
    <path d="M249,950L290,1132L422,1018Z" fill="#88b3c1" stroke="#88b3c1" stroke-width="1.51"/>
    <path d="M229,-76L279,60L394,33Z" fill="#d4efcd" stroke="#d4efcd" stroke-width="1.51"/>
    <path d="M159,963L151,1092L249,950Z" fill="#8eb8c7" stroke="#8eb8c7" stroke-width="1.51"/>
    <path d="M103,390L101,542L279,403Z" fill="#b6e2c8" stroke="#b6e2c8" stroke-width="1.51"/>
    <path d="M268,212L106,266L279,403Z" fill="#c3e8c3" stroke="#c3e8c3" stroke-width="1.51"/>
    <path d="M106,266L103,390L279,403Z" fill="#bfe6c4" stroke="#bfe6c4" stroke-width="1.51"/>
    <path d="M229,-76L148,-32L279,60Z" fill="#d8f0d1" stroke="#d8f0d1" stroke-width="1.51"/>
    <path d="M108,127L268,212L279,60Z" fill="#d0edca" stroke="#d0edca" stroke-width="1.51"/>
    <path d="M121,664L257,739L284,566Z" fill="#a2d6ce" stroke="#a2d6ce" stroke-width="1.51"/>
    <path d="M279,403L101,542L284,566Z" fill="#aedfc8" stroke="#aedfc8" stroke-width="1.51"/>
    <path d="M249,950L151,1092L290,1132Z" fill="#8ab1c3" stroke="#8ab1c3" stroke-width="1.51"/>
    <path d="M126,1278L260,1328L290,1132Z" fill="#839fb6" stroke="#839fb6" stroke-width="1.51"/>
    <path d="M151,1092L126,1278L290,1132Z" fill="#86a8bf" stroke="#86a8bf" stroke-width="1.51"/>
    <path d="M134,811L249,950L261,814Z" fill="#95c6cd" stroke="#95c6cd" stroke-width="1.51"/>
    <path d="M101,542L121,664L284,566Z" fill="#a9dbce" stroke="#a9dbce" stroke-width="1.51"/>
    <path d="M134,811L159,963L249,950Z" fill="#92c1cb" stroke="#92c1cb" stroke-width="1.51"/>
    <path d="M148,-32L108,127L279,60Z" fill="#d6efcf" stroke="#d6efcf" stroke-width="1.51"/>
    <path d="M257,739L134,811L261,814Z" fill="#99ccd0" stroke="#99ccd0" stroke-width="1.51"/>
    <path d="M108,127L106,266L268,212Z" fill="#ccebc9" stroke="#ccebc9" stroke-width="1.51"/>
    <path d="M121,664L134,811L257,739Z" fill="#9dd2d3" stroke="#9dd2d3" stroke-width="1.51"/>
    <path d="M166,-213L229,-76L236,-180Z" fill="#e0f3d9" stroke="#e0f3d9" stroke-width="1.51"/>
    <path d="M166,-213L148,-32L229,-76Z" fill="#def2d8" stroke="#def2d8" stroke-width="1.51"/>
    <path d="M-34,62L108,127L148,-32Z" fill="#d9f1d3" stroke="#d9f1d3" stroke-width="1.51"/>
    <path d="M19,1273L126,1278L151,1092Z" fill="#87a4bd" stroke="#87a4bd" stroke-width="1.51"/>
    <path d="M-66,1118L19,1273L151,1092Z" fill="#8cabc5" stroke="#8cabc5" stroke-width="1.51"/>
    <path d="M134,811L16,858L159,963Z" fill="#97c5d0" stroke="#97c5d0" stroke-width="1.51"/>
    <path d="M16,858L-5,953L159,963Z" fill="#95c1cf" stroke="#95c1cf" stroke-width="1.51"/>
    <path d="M-5,953L151,1092L159,963Z" fill="#90b9ca" stroke="#90b9ca" stroke-width="1.51"/>
    <path d="M-34,-100L148,-32L166,-213Z" fill="#e1f4dc" stroke="#e1f4dc" stroke-width="1.51"/>
    <path d="M-55,-186L-34,-100L166,-213Z" fill="#e7f6e0" stroke="#e7f6e0" stroke-width="1.51"/>
    <path d="M121,664L-24,723L134,811Z" fill="#a1d4d6" stroke="#a1d4d6" stroke-width="1.51"/>
    <path d="M-5,953L-66,1118L151,1092Z" fill="#91b5ca" stroke="#91b5ca" stroke-width="1.51"/>
    <path d="M-16,492L101,542L103,390Z" fill="#b7e2cd" stroke="#b7e2cd" stroke-width="1.51"/>
    <path d="M20,338L103,390L106,266Z" fill="#c4e8c7" stroke="#c4e8c7" stroke-width="1.51"/>
    <path d="M-34,-100L-34,62L148,-32Z" fill="#dff3d9" stroke="#dff3d9" stroke-width="1.51"/>
    <path d="M-10,271L106,266L108,127Z" fill="#ceeccc" stroke="#ceeccc" stroke-width="1.51"/>
    <path d="M-24,723L16,858L134,811Z" fill="#9dced5" stroke="#9dced5" stroke-width="1.51"/>
    <path d="M101,542L-24,723L121,664Z" fill="#a8d9d4" stroke="#a8d9d4" stroke-width="1.51"/>
    <path d="M-16,492L-24,723L101,542Z" fill="#aeddd3" stroke="#aeddd3" stroke-width="1.51"/>
    <path d="M20,338L-16,492L103,390Z" fill="#bee6cb" stroke="#bee6cb" stroke-width="1.51"/>
    <path d="M-10,271L20,338L106,266Z" fill="#c9eaca" stroke="#c9eaca" stroke-width="1.51"/>
    <path d="M-34,62L-10,271L108,127Z" fill="#d6efd0" stroke="#d6efd0" stroke-width="1.51"/>
    <path d="M-144,-9L-34,62L-34,-100Z" fill="#e2f4dc" stroke="#e2f4dc" stroke-width="1.51"/>
    <path d="M-127,515L-24,723L-16,492Z" fill="#b2dfd5" stroke="#b2dfd5" stroke-width="1.51"/>
    <path d="M-34,62L-164,255L-10,271Z" fill="#d5efd2" stroke="#d5efd2" stroke-width="1.51"/>
    <path d="M-24,723L-164,790L16,858Z" fill="#a2d0d9" stroke="#a2d0d9" stroke-width="1.51"/>
    <path d="M-66,1118L-124,1255L19,1273Z" fill="#8da6c2" stroke="#8da6c2" stroke-width="1.51"/>
    <path d="M-10,271L-120,364L20,338Z" fill="#c9eacc" stroke="#c9eacc" stroke-width="1.51"/>
    <path d="M-120,364L-16,492L20,338Z" fill="#c2e7ce" stroke="#c2e7ce" stroke-width="1.51"/>
    <path d="M-180,949L-5,953L16,858Z" fill="#9ac3d3" stroke="#9ac3d3" stroke-width="1.51"/>
    <path d="M-127,515L-214,669L-24,723Z" fill="#b0dcda" stroke="#b0dcda" stroke-width="1.51"/>
    <path d="M-164,790L-180,949L16,858Z" fill="#9fc9d7" stroke="#9fc9d7" stroke-width="1.51"/>
    <path d="M-130,34L-164,255L-34,62Z" fill="#ddf2d6" stroke="#ddf2d6" stroke-width="1.51"/>
    <path d="M-144,-9L-130,34L-34,62Z" fill="#e1f4da" stroke="#e1f4da" stroke-width="1.51"/>
    <path d="M-120,364L-127,515L-16,492Z" fill="#bee5d1" stroke="#bee5d1" stroke-width="1.51"/>
    <path d="M-180,949L-66,1118L-5,953Z" fill="#97bad0" stroke="#97bad0" stroke-width="1.51"/>
    <path d="M-164,255L-120,364L-10,271Z" fill="#ceeccf" stroke="#ceeccf" stroke-width="1.51"/>
    <path d="M-171,1179L-124,1255L-66,1118Z" fill="#91aac8" stroke="#91aac8" stroke-width="1.51"/>
    <path d="M-214,669L-164,790L-24,723Z" fill="#a9d7de" stroke="#a9d7de" stroke-width="1.51"/>
    <path d="M-55,-186L-144,-9L-34,-100Z" fill="#e7f6e1" stroke="#e7f6e1" stroke-width="1.51"/>
    <path d="M-180,949L-171,1179L-66,1118Z" fill="#96b4cf" stroke="#96b4cf" stroke-width="1.51"/>
    <path d="M-222,-223L-144,-9L-55,-186Z" fill="#ebf8e5" stroke="#ebf8e5" stroke-width="1.51"/>
    <path d="M-164,255L-214,669L-127,515Z" fill="#bfe6d5" stroke="#bfe6d5" stroke-width="1.51"/>
    <path d="M-164,255L-127,515L-120,364Z" fill="#c7e9d0" stroke="#c7e9d0" stroke-width="1.51"/>
    <path d="M-144,-9L-164,255L-130,34Z" fill="#e0f3d9" stroke="#e0f3d9" stroke-width="1.51"/>
    <path d="M-222,-223L-164,255L-144,-9Z" fill="#e5f5df" stroke="#e5f5df" stroke-width="1.51"/>
    <path d="M-214,669L-180,949L-164,790Z" fill="#a6d0dd" stroke="#a6d0dd" stroke-width="1.51"/>
    <path d="M-222,-223L-214,669L-164,255Z" fill="#d7f0d5" stroke="#d7f0d5" stroke-width="1.51"/>
    <path d="M-180,949L-214,669L-171,1179Z" fill="#9ec4d6" stroke="#9ec4d6" stroke-width="1.51"/>
</svg>