<svg xmlns="http://www.w3.org/2000/svg" width="1280" height="60">
    <path d="M95,112L-17,113L224,113Z" fill="#ac81af" stroke="#ac81af" stroke-width="1.51"/>
    <path d="M295,-54L416,-49L462,-50Z" fill="#c9daeb" stroke="#c9daeb" stroke-width="1.51"/>
    <path d="M264,-56L295,-54L462,-50Z" fill="#cedeec" stroke="#cedeec" stroke-width="1.51"/>
    <path d="M305,112L224,113L496,112Z" fill="#9872a6" stroke="#9872a6" stroke-width="1.51"/>
    <path d="M424,111L305,112L496,112Z" fill="#936fa5" stroke="#936fa5" stroke-width="1.51"/>
    <path d="M462,-50L536,-48L584,-50Z" fill="#becee4" stroke="#becee4" stroke-width="1.51"/>
    <path d="M616,110L496,112L654,113Z" fill="#875f9c" stroke="#875f9c" stroke-width="1.51"/>
    <path d="M462,-50L584,-50L657,-55Z" fill="#bdcae2" stroke="#bdcae2" stroke-width="1.51"/>
    <path d="M264,-56L462,-50L657,-55Z" fill="#c3d7e9" stroke="#c3d7e9" stroke-width="1.51"/>
    <path d="M697,112L654,113L776,113Z" fill="#825095" stroke="#825095" stroke-width="1.51"/>
    <path d="M657,-55L783,-54L855,-55Z" fill="#bbb3d7" stroke="#bbb3d7" stroke-width="1.51"/>
    <path d="M776,113L654,113L902,115Z" fill="#804790" stroke="#804790" stroke-width="1.51"/>
    <path d="M657,-55L855,-55L982,-56Z" fill="#bcacd4" stroke="#bcacd4" stroke-width="1.51"/>
    <path d="M264,-56L657,-55L982,-56Z" fill="#bcc4df" stroke="#bcc4df" stroke-width="1.51"/>
    <path d="M940,114L902,115L1018,114Z" fill="#7c3085" stroke="#7c3085" stroke-width="1.51"/>
    <path d="M1018,114L902,115L1138,114Z" fill="#7a2781" stroke="#7a2781" stroke-width="1.51"/>
    <path d="M1057,-51L1095,-50L1179,-53Z" fill="#b88dbf" stroke="#b88dbf" stroke-width="1.51"/>
    <path d="M982,-56L1057,-51L1179,-53Z" fill="#ba92c3" stroke="#ba92c3" stroke-width="1.51"/>
    <path d="M1095,-50L1144,-49L1179,-53Z" fill="#b88bbc" stroke="#b88bbc" stroke-width="1.51"/>
    <path d="M1179,-53L1220,-48L1257,-53Z" fill="#b184b2" stroke="#b184b2" stroke-width="1.51"/>
    <path d="M1224,104L1182,113L1264,105Z" fill="#780c73" stroke="#780c73" stroke-width="1.51"/>
    <path d="M1264,105L1182,113L1301,110Z" fill="#720a6e" stroke="#720a6e" stroke-width="1.51"/>
    <path d="M1179,-53L1257,-53L1304,-54Z" fill="#ad82ae" stroke="#ad82ae" stroke-width="1.51"/>
    <path d="M982,-56L1179,-53L1304,-54Z" fill="#b98aba" stroke="#b98aba" stroke-width="1.51"/>
    <path d="M1304,-54L1298,-12L1334,-9Z" fill="#93729e" stroke="#93729e" stroke-width="1.51"/>
    <path d="M1335,66L1301,70L1336,106Z" fill="#6f2477" stroke="#6f2477" stroke-width="1.51"/>
    <path d="M1304,-54L1334,-9L1344,-47Z" fill="#98769f" stroke="#98769f" stroke-width="1.51"/>
    <path d="M1334,30L1335,66L1344,-47Z" fill="#795c8f" stroke="#795c8f" stroke-width="1.51"/>
    <path d="M1334,-9L1334,30L1344,-47Z" fill="#856a96" stroke="#856a96" stroke-width="1.51"/>
    <path d="M1335,66L1336,106L1344,-47Z" fill="#724785" stroke="#724785" stroke-width="1.51"/>
    <path d="M1298,-12L1300,34L1334,-9Z" fill="#826697" stroke="#826697" stroke-width="1.51"/>
    <path d="M1334,-9L1300,34L1334,30Z" fill="#7a5b90" stroke="#7a5b90" stroke-width="1.51"/>
    <path d="M1334,30L1300,34L1335,66Z" fill="#744786" stroke="#744786" stroke-width="1.51"/>
    <path d="M1300,34L1301,70L1335,66Z" fill="#743b83" stroke="#743b83" stroke-width="1.51"/>
    <path d="M1301,70L1301,110L1336,106Z" fill="#6f1670" stroke="#6f1670" stroke-width="1.51"/>
    <path d="M178,111L95,112L224,113Z" fill="#a77dad" stroke="#a77dad" stroke-width="1.51"/>
    <path d="M1257,-53L1255,-11L1298,-12Z" fill="#9a75a4" stroke="#9a75a4" stroke-width="1.51"/>
    <path d="M1298,-12L1264,26L1300,34Z" fill="#805f96" stroke="#805f96" stroke-width="1.51"/>
    <path d="M1264,26L1261,71L1300,34Z" fill="#7c4a8d" stroke="#7c4a8d" stroke-width="1.51"/>
    <path d="M1300,34L1261,71L1301,70Z" fill="#783c85" stroke="#783c85" stroke-width="1.51"/>
    <path d="M1261,71L1264,105L1301,70Z" fill="#77267d" stroke="#77267d" stroke-width="1.51"/>
    <path d="M1301,70L1264,105L1301,110Z" fill="#721873" stroke="#721873" stroke-width="1.51"/>
    <path d="M1257,-53L1298,-12L1304,-54Z" fill="#a07ba6" stroke="#a07ba6" stroke-width="1.51"/>
    <path d="M1255,-11L1264,26L1298,-12Z" fill="#8a6a9d" stroke="#8a6a9d" stroke-width="1.51"/>
    <path d="M1096,106L1063,106L1138,114Z" fill="#7f1d80" stroke="#7f1d80" stroke-width="1.51"/>
    <path d="M1063,106L1018,114L1138,114Z" fill="#7d207f" stroke="#7d207f" stroke-width="1.51"/>
    <path d="M1220,-48L1255,-11L1257,-53Z" fill="#a67dab" stroke="#a67dab" stroke-width="1.51"/>
    <path d="M1221,68L1224,104L1261,71Z" fill="#7d2884" stroke="#7d2884" stroke-width="1.51"/>
    <path d="M1222,26L1221,68L1261,71Z" fill="#80428e" stroke="#80428e" stroke-width="1.51"/>
    <path d="M1222,26L1261,71L1264,26Z" fill="#804e92" stroke="#804e92" stroke-width="1.51"/>
    <path d="M1255,-11L1222,26L1264,26Z" fill="#88649d" stroke="#88649d" stroke-width="1.51"/>
    <path d="M1261,71L1224,104L1264,105Z" fill="#781b7a" stroke="#781b7a" stroke-width="1.51"/>
    <path d="M1220,-48L1217,-13L1255,-11Z" fill="#9f78a9" stroke="#9f78a9" stroke-width="1.51"/>
    <path d="M1217,-13L1222,26L1255,-11Z" fill="#916da4" stroke="#916da4" stroke-width="1.51"/>
    <path d="M657,-55L704,-51L783,-54Z" fill="#bbb9da" stroke="#bbb9da" stroke-width="1.51"/>
    <path d="M855,-55L894,-50L982,-56Z" fill="#bba3cf" stroke="#bba3cf" stroke-width="1.51"/>
    <path d="M1179,-53L1217,-13L1220,-48Z" fill="#ac80b1" stroke="#ac80b1" stroke-width="1.51"/>
    <path d="M1217,-13L1174,-6L1222,26Z" fill="#946ea7" stroke="#946ea7" stroke-width="1.51"/>
    <path d="M1174,-6L1176,33L1222,26Z" fill="#8f65a4" stroke="#8f65a4" stroke-width="1.51"/>
    <path d="M1185,66L1221,68L1222,26Z" fill="#844592" stroke="#844592" stroke-width="1.51"/>
    <path d="M1176,33L1185,66L1222,26Z" fill="#885199" stroke="#885199" stroke-width="1.51"/>
    <path d="M1221,68L1185,66L1224,104Z" fill="#802b89" stroke="#802b89" stroke-width="1.51"/>
    <path d="M1185,66L1182,113L1224,104Z" fill="#801d80" stroke="#801d80" stroke-width="1.51"/>
    <path d="M1179,-53L1174,-6L1217,-13Z" fill="#a67baf" stroke="#a67baf" stroke-width="1.51"/>
    <path d="M1174,-6L1144,26L1176,33Z" fill="#9168a7" stroke="#9168a7" stroke-width="1.51"/>
    <path d="M1144,-49L1174,-6L1179,-53Z" fill="#af82b6" stroke="#af82b6" stroke-width="1.51"/>
    <path d="M1136,68L1138,114L1182,113Z" fill="#831e83" stroke="#831e83" stroke-width="1.51"/>
    <path d="M1136,68L1182,113L1185,66Z" fill="#852c8c" stroke="#852c8c" stroke-width="1.51"/>
    <path d="M1176,33L1136,68L1185,66Z" fill="#894697" stroke="#894697" stroke-width="1.51"/>
    <path d="M1144,-49L1134,-12L1174,-6Z" fill="#a77db3" stroke="#a77db3" stroke-width="1.51"/>
    <path d="M1144,26L1136,68L1176,33Z" fill="#8a549e" stroke="#8a549e" stroke-width="1.51"/>
    <path d="M1134,-12L1144,26L1174,-6Z" fill="#9773ad" stroke="#9773ad" stroke-width="1.51"/>
    <path d="M982,-56L1021,-48L1057,-51Z" fill="#b996c7" stroke="#b996c7" stroke-width="1.51"/>
    <path d="M1095,-50L1100,-13L1134,-12Z" fill="#a983b8" stroke="#a983b8" stroke-width="1.51"/>
    <path d="M1136,68L1096,106L1138,114Z" fill="#842587" stroke="#842587" stroke-width="1.51"/>
    <path d="M1095,-50L1134,-12L1144,-49Z" fill="#b087ba" stroke="#b087ba" stroke-width="1.51"/>
    <path d="M1098,27L1136,68L1144,26Z" fill="#8b58a1" stroke="#8b58a1" stroke-width="1.51"/>
    <path d="M1134,-12L1098,27L1144,26Z" fill="#936eac" stroke="#936eac" stroke-width="1.51"/>
    <path d="M816,108L776,113L902,115Z" fill="#81418e" stroke="#81418e" stroke-width="1.51"/>
    <path d="M1100,-13L1098,27L1134,-12Z" fill="#9978b2" stroke="#9978b2" stroke-width="1.51"/>
    <path d="M1098,27L1096,68L1136,68Z" fill="#894c9d" stroke="#894c9d" stroke-width="1.51"/>
    <path d="M1096,68L1096,106L1136,68Z" fill="#863492" stroke="#863492" stroke-width="1.51"/>
    <path d="M1057,-51L1061,-9L1095,-50Z" fill="#b18cbf" stroke="#b18cbf" stroke-width="1.51"/>
    <path d="M1060,73L1063,106L1096,106Z" fill="#852d8c" stroke="#852d8c" stroke-width="1.51"/>
    <path d="M1060,73L1096,106L1096,68Z" fill="#873693" stroke="#873693" stroke-width="1.51"/>
    <path d="M1057,32L1060,73L1096,68Z" fill="#8a4e9f" stroke="#8a4e9f" stroke-width="1.51"/>
    <path d="M1057,32L1096,68L1098,27Z" fill="#8b5aa4" stroke="#8b5aa4" stroke-width="1.51"/>
    <path d="M1061,-9L1057,32L1098,27Z" fill="#9271b0" stroke="#9271b0" stroke-width="1.51"/>
    <path d="M1061,-9L1098,27L1100,-13Z" fill="#9879b4" stroke="#9879b4" stroke-width="1.51"/>
    <path d="M1095,-50L1061,-9L1100,-13Z" fill="#a885ba" stroke="#a885ba" stroke-width="1.51"/>
    <path d="M894,-50L940,-47L982,-56Z" fill="#ba9fcd" stroke="#ba9fcd" stroke-width="1.51"/>
    <path d="M982,105L940,114L1018,114Z" fill="#7f2d87" stroke="#7f2d87" stroke-width="1.51"/>
    <path d="M1021,-48L1021,-14L1057,-51Z" fill="#b190c3" stroke="#b190c3" stroke-width="1.51"/>
    <path d="M1057,32L1025,32L1060,73Z" fill="#8b5ba6" stroke="#8b5ba6" stroke-width="1.51"/>
    <path d="M1025,32L1018,73L1060,73Z" fill="#8a50a2" stroke="#8a50a2" stroke-width="1.51"/>
    <path d="M1057,-51L1021,-14L1061,-9Z" fill="#a989be" stroke="#a989be" stroke-width="1.51"/>
    <path d="M1025,32L1057,32L1061,-9Z" fill="#9272b1" stroke="#9272b1" stroke-width="1.51"/>
    <path d="M1021,-14L1025,32L1061,-9Z" fill="#987eb8" stroke="#987eb8" stroke-width="1.51"/>
    <path d="M1060,73L1018,73L1063,106Z" fill="#873996" stroke="#873996" stroke-width="1.51"/>
    <path d="M1018,73L1018,114L1063,106Z" fill="#852f8e" stroke="#852f8e" stroke-width="1.51"/>
    <path d="M985,27L983,70L1018,73Z" fill="#8a56a7" stroke="#8a56a7" stroke-width="1.51"/>
    <path d="M982,105L1018,114L1018,73Z" fill="#863391" stroke="#863391" stroke-width="1.51"/>
    <path d="M1021,-48L980,-14L1021,-14Z" fill="#aa8cc2" stroke="#aa8cc2" stroke-width="1.51"/>
    <path d="M980,-14L985,27L1021,-14Z" fill="#9a83bd" stroke="#9a83bd" stroke-width="1.51"/>
    <path d="M1021,-14L985,27L1025,32Z" fill="#9378b6" stroke="#9378b6" stroke-width="1.51"/>
    <path d="M985,27L1018,73L1025,32Z" fill="#8c60aa" stroke="#8c60aa" stroke-width="1.51"/>
    <path d="M983,70L982,105L1018,73Z" fill="#88409b" stroke="#88409b" stroke-width="1.51"/>
    <path d="M982,-56L980,-14L1021,-48Z" fill="#b394c7" stroke="#b394c7" stroke-width="1.51"/>
    <path d="M858,106L816,108L902,115Z" fill="#823e8f" stroke="#823e8f" stroke-width="1.51"/>
    <path d="M295,-54L376,-48L416,-49Z" fill="#cbdbeb" stroke="#cbdbeb" stroke-width="1.51"/>
    <path d="M940,65L940,114L982,105Z" fill="#873b95" stroke="#873b95" stroke-width="1.51"/>
    <path d="M940,-47L980,-14L982,-56Z" fill="#b397c9" stroke="#b397c9" stroke-width="1.51"/>
    <path d="M940,65L982,105L983,70Z" fill="#89459f" stroke="#89459f" stroke-width="1.51"/>
    <path d="M980,-14L944,-5L985,27Z" fill="#9884bd" stroke="#9884bd" stroke-width="1.51"/>
    <path d="M944,-5L938,25L985,27Z" fill="#927db9" stroke="#927db9" stroke-width="1.51"/>
    <path d="M940,65L983,70L985,27Z" fill="#8b5ba9" stroke="#8b5ba9" stroke-width="1.51"/>
    <path d="M938,25L940,65L985,27Z" fill="#8c6ab0" stroke="#8c6ab0" stroke-width="1.51"/>
    <path d="M940,-47L944,-5L980,-14Z" fill="#a890c4" stroke="#a890c4" stroke-width="1.51"/>
    <path d="M898,69L902,115L940,114Z" fill="#873d95" stroke="#873d95" stroke-width="1.51"/>
    <path d="M938,25L904,33L940,65Z" fill="#8c6cb1" stroke="#8c6cb1" stroke-width="1.51"/>
    <path d="M898,69L940,114L940,65Z" fill="#89489f" stroke="#89489f" stroke-width="1.51"/>
    <path d="M940,-47L902,-11L944,-5Z" fill="#a793c6" stroke="#a793c6" stroke-width="1.51"/>
    <path d="M902,-11L938,25L944,-5Z" fill="#9889c0" stroke="#9889c0" stroke-width="1.51"/>
    <path d="M902,-11L904,33L938,25Z" fill="#9282bb" stroke="#9282bb" stroke-width="1.51"/>
    <path d="M894,-50L902,-11L940,-47Z" fill="#b19ccb" stroke="#b19ccb" stroke-width="1.51"/>
    <path d="M904,33L898,69L940,65Z" fill="#8b60ab" stroke="#8b60ab" stroke-width="1.51"/>
    <path d="M101,-55L179,-51L264,-56Z" fill="#dde9f3" stroke="#dde9f3" stroke-width="1.51"/>
    <path d="M734,108L697,112L776,113Z" fill="#834d95" stroke="#834d95" stroke-width="1.51"/>
    <path d="M861,68L858,106L898,69Z" fill="#8a50a3" stroke="#8a50a3" stroke-width="1.51"/>
    <path d="M862,31L861,68L898,69Z" fill="#8c64ad" stroke="#8c64ad" stroke-width="1.51"/>
    <path d="M894,-50L856,-14L902,-11Z" fill="#aa9ac9" stroke="#aa9ac9" stroke-width="1.51"/>
    <path d="M856,-14L862,31L902,-11Z" fill="#998fc3" stroke="#998fc3" stroke-width="1.51"/>
    <path d="M898,69L858,106L902,115Z" fill="#884398" stroke="#884398" stroke-width="1.51"/>
    <path d="M902,-11L862,31L904,33Z" fill="#9283bc" stroke="#9283bc" stroke-width="1.51"/>
    <path d="M862,31L898,69L904,33Z" fill="#8c6db1" stroke="#8c6db1" stroke-width="1.51"/>
    <path d="M855,-55L856,-14L894,-50Z" fill="#b3a2ce" stroke="#b3a2ce" stroke-width="1.51"/>
    <path d="M783,-54L825,-45L855,-55Z" fill="#baacd3" stroke="#baacd3" stroke-width="1.51"/>
    <path d="M855,-55L825,-45L856,-14Z" fill="#b2a4cf" stroke="#b2a4cf" stroke-width="1.51"/>
    <path d="M816,-10L817,27L856,-14Z" fill="#9994c6" stroke="#9994c6" stroke-width="1.51"/>
    <path d="M816,74L816,108L858,106Z" fill="#894a9c" stroke="#894a9c" stroke-width="1.51"/>
    <path d="M816,74L858,106L861,68Z" fill="#8a52a3" stroke="#8a52a3" stroke-width="1.51"/>
    <path d="M817,27L816,74L861,68Z" fill="#8c69b0" stroke="#8c69b0" stroke-width="1.51"/>
    <path d="M817,27L861,68L862,31Z" fill="#8d74b5" stroke="#8d74b5" stroke-width="1.51"/>
    <path d="M856,-14L817,27L862,31Z" fill="#9389c0" stroke="#9389c0" stroke-width="1.51"/>
    <path d="M825,-45L816,-10L856,-14Z" fill="#a99ecc" stroke="#a99ecc" stroke-width="1.51"/>
    <path d="M541,105L496,112L616,110Z" fill="#8c64a1" stroke="#8c64a1" stroke-width="1.51"/>
    <path d="M704,-51L743,-45L783,-54Z" fill="#b9b5d8" stroke="#b9b5d8" stroke-width="1.51"/>
    <path d="M783,33L778,69L816,74Z" fill="#8c6cb1" stroke="#8c6cb1" stroke-width="1.51"/>
    <path d="M783,33L816,74L817,27Z" fill="#8d76b6" stroke="#8d76b6" stroke-width="1.51"/>
    <path d="M783,-54L816,-10L825,-45Z" fill="#b1a7d0" stroke="#b1a7d0" stroke-width="1.51"/>
    <path d="M775,-12L783,33L816,-10Z" fill="#9797c7" stroke="#9797c7" stroke-width="1.51"/>
    <path d="M783,-54L775,-12L816,-10Z" fill="#aaa4ce" stroke="#aaa4ce" stroke-width="1.51"/>
    <path d="M816,74L778,69L816,108Z" fill="#8a56a5" stroke="#8a56a5" stroke-width="1.51"/>
    <path d="M778,69L776,113L816,108Z" fill="#8a4f9d" stroke="#8a4f9d" stroke-width="1.51"/>
    <path d="M816,-10L783,33L817,27Z" fill="#928dc2" stroke="#928dc2" stroke-width="1.51"/>
    <path d="M-22,-49L61,-51L101,-55Z" fill="#e6f0f6" stroke="#e6f0f6" stroke-width="1.51"/>
    <path d="M101,-55L136,-52L179,-51Z" fill="#e0ecf4" stroke="#e0ecf4" stroke-width="1.51"/>
    <path d="M584,-50L620,-49L657,-55Z" fill="#bac4df" stroke="#bac4df" stroke-width="1.51"/>
    <path d="M737,74L734,108L776,113Z" fill="#8a539f" stroke="#8a539f" stroke-width="1.51"/>
    <path d="M737,74L776,113L778,69Z" fill="#8b5ba7" stroke="#8b5ba7" stroke-width="1.51"/>
    <path d="M743,-45L775,-12L783,-54Z" fill="#b1add3" stroke="#b1add3" stroke-width="1.51"/>
    <path d="M745,30L778,69L783,33Z" fill="#8d7bb9" stroke="#8d7bb9" stroke-width="1.51"/>
    <path d="M775,-12L745,30L783,33Z" fill="#9291c3" stroke="#9291c3" stroke-width="1.51"/>
    <path d="M736,-9L745,30L775,-12Z" fill="#989cca" stroke="#989cca" stroke-width="1.51"/>
    <path d="M743,-45L736,-9L775,-12Z" fill="#a8a8d0" stroke="#a8a8d0" stroke-width="1.51"/>
    <path d="M745,30L737,74L778,69Z" fill="#8d71b4" stroke="#8d71b4" stroke-width="1.51"/>
    <path d="M577,104L541,105L616,110Z" fill="#8d62a2" stroke="#8d62a2" stroke-width="1.51"/>
    <path d="M704,-51L736,-9L743,-45Z" fill="#b0b0d5" stroke="#b0b0d5" stroke-width="1.51"/>
    <path d="M736,-9L701,-6L745,30Z" fill="#969ecb" stroke="#969ecb" stroke-width="1.51"/>
    <path d="M701,-6L694,30L745,30Z" fill="#9196c6" stroke="#9196c6" stroke-width="1.51"/>
    <path d="M699,68L737,74L745,30Z" fill="#8d74b5" stroke="#8d74b5" stroke-width="1.51"/>
    <path d="M694,30L699,68L745,30Z" fill="#8d83bc" stroke="#8d83bc" stroke-width="1.51"/>
    <path d="M704,-51L701,-6L736,-9Z" fill="#a8acd2" stroke="#a8acd2" stroke-width="1.51"/>
    <path d="M699,68L697,112L734,108Z" fill="#8b5aa3" stroke="#8b5aa3" stroke-width="1.51"/>
    <path d="M699,68L734,108L737,74Z" fill="#8c61aa" stroke="#8c61aa" stroke-width="1.51"/>
    <path d="M462,-50L494,-46L536,-48Z" fill="#bfd1e6" stroke="#bfd1e6" stroke-width="1.51"/>
    <path d="M661,64L654,113L697,112Z" fill="#8b5fa4" stroke="#8b5fa4" stroke-width="1.51"/>
    <path d="M661,64L697,112L699,68Z" fill="#8c67ae" stroke="#8c67ae" stroke-width="1.51"/>
    <path d="M694,30L661,64L699,68Z" fill="#8d7cb9" stroke="#8d7cb9" stroke-width="1.51"/>
    <path d="M664,-7L694,30L701,-6Z" fill="#96a3cd" stroke="#96a3cd" stroke-width="1.51"/>
    <path d="M664,-7L701,-6L704,-51Z" fill="#a7aed3" stroke="#a7aed3" stroke-width="1.51"/>
    <path d="M657,-55L664,-7L704,-51Z" fill="#b1b9d9" stroke="#b1b9d9" stroke-width="1.51"/>
    <path d="M661,32L661,64L694,30Z" fill="#8d88bf" stroke="#8d88bf" stroke-width="1.51"/>
    <path d="M664,-7L661,32L694,30Z" fill="#919bc8" stroke="#919bc8" stroke-width="1.51"/>
    <path d="M295,-54L341,-48L376,-48Z" fill="#cdddec" stroke="#cdddec" stroke-width="1.51"/>
    <path d="M339,107L305,112L424,111Z" fill="#9973a8" stroke="#9973a8" stroke-width="1.51"/>
    <path d="M614,70L616,110L654,113Z" fill="#8c63a6" stroke="#8c63a6" stroke-width="1.51"/>
    <path d="M620,-49L623,-9L657,-55Z" fill="#b2bddb" stroke="#b2bddb" stroke-width="1.51"/>
    <path d="M614,70L654,113L661,64Z" fill="#8d6bb0" stroke="#8d6bb0" stroke-width="1.51"/>
    <path d="M661,32L625,31L661,64Z" fill="#8d8bc0" stroke="#8d8bc0" stroke-width="1.51"/>
    <path d="M657,-55L623,-9L664,-7Z" fill="#a8b5d6" stroke="#a8b5d6" stroke-width="1.51"/>
    <path d="M625,31L661,32L664,-7Z" fill="#909dca" stroke="#909dca" stroke-width="1.51"/>
    <path d="M623,-9L625,31L664,-7Z" fill="#95a9d0" stroke="#95a9d0" stroke-width="1.51"/>
    <path d="M625,31L614,70L661,64Z" fill="#8d81bc" stroke="#8d81bc" stroke-width="1.51"/>
    <path d="M455,108L424,111L496,112Z" fill="#906da4" stroke="#906da4" stroke-width="1.51"/>
    <path d="M580,25L580,67L614,70Z" fill="#8f87be" stroke="#8f87be" stroke-width="1.51"/>
    <path d="M584,-50L584,-13L620,-49Z" fill="#b4c1dd" stroke="#b4c1dd" stroke-width="1.51"/>
    <path d="M584,-13L580,25L623,-9Z" fill="#9aafd3" stroke="#9aafd3" stroke-width="1.51"/>
    <path d="M620,-49L584,-13L623,-9Z" fill="#aab9d8" stroke="#aab9d8" stroke-width="1.51"/>
    <path d="M623,-9L580,25L625,31Z" fill="#93a4cd" stroke="#93a4cd" stroke-width="1.51"/>
    <path d="M580,25L614,70L625,31Z" fill="#8e90c3" stroke="#8e90c3" stroke-width="1.51"/>
    <path d="M614,70L577,104L616,110Z" fill="#8e67a9" stroke="#8e67a9" stroke-width="1.51"/>
    <path d="M580,67L577,104L614,70Z" fill="#8f72b4" stroke="#8f72b4" stroke-width="1.51"/>
    <path d="M379,105L339,107L424,111Z" fill="#9a72aa" stroke="#9a72aa" stroke-width="1.51"/>
    <path d="M538,70L541,105L577,104Z" fill="#916dae" stroke="#916dae" stroke-width="1.51"/>
    <path d="M535,-9L537,29L580,25Z" fill="#96abd1" stroke="#96abd1" stroke-width="1.51"/>
    <path d="M538,70L577,104L580,67Z" fill="#9175b5" stroke="#9175b5" stroke-width="1.51"/>
    <path d="M580,25L537,29L580,67Z" fill="#9195c5" stroke="#9195c5" stroke-width="1.51"/>
    <path d="M537,29L538,70L580,67Z" fill="#928ac0" stroke="#928ac0" stroke-width="1.51"/>
    <path d="M535,-9L580,25L584,-13Z" fill="#9bb2d5" stroke="#9bb2d5" stroke-width="1.51"/>
    <path d="M584,-50L536,-48L584,-13Z" fill="#b4c4df" stroke="#b4c4df" stroke-width="1.51"/>
    <path d="M536,-48L535,-9L584,-13Z" fill="#acbfdc" stroke="#acbfdc" stroke-width="1.51"/>
    <path d="M179,-51L222,-51L264,-56Z" fill="#d9e6f1" stroke="#d9e6f1" stroke-width="1.51"/>
    <path d="M501,-12L496,29L535,-9Z" fill="#9db7d7" stroke="#9db7d7" stroke-width="1.51"/>
    <path d="M501,-12L535,-9L536,-48Z" fill="#aec2de" stroke="#aec2de" stroke-width="1.51"/>
    <path d="M494,-46L501,-12L536,-48Z" fill="#b6c9e1" stroke="#b6c9e1" stroke-width="1.51"/>
    <path d="M535,-9L496,29L537,29Z" fill="#97add2" stroke="#97add2" stroke-width="1.51"/>
    <path d="M496,29L503,71L537,29Z" fill="#9498c7" stroke="#9498c7" stroke-width="1.51"/>
    <path d="M537,29L503,71L538,70Z" fill="#938bc1" stroke="#938bc1" stroke-width="1.51"/>
    <path d="M538,70L503,71L541,105Z" fill="#9378b6" stroke="#9378b6" stroke-width="1.51"/>
    <path d="M503,71L496,112L541,105Z" fill="#9470ad" stroke="#9470ad" stroke-width="1.51"/>
    <path d="M454,34L455,66L496,29Z" fill="#969dca" stroke="#969dca" stroke-width="1.51"/>
    <path d="M465,-11L496,29L501,-12Z" fill="#9fbad9" stroke="#9fbad9" stroke-width="1.51"/>
    <path d="M494,-46L465,-11L501,-12Z" fill="#afc6e0" stroke="#afc6e0" stroke-width="1.51"/>
    <path d="M496,29L455,66L503,71Z" fill="#9591c4" stroke="#9591c4" stroke-width="1.51"/>
    <path d="M455,108L496,112L503,71Z" fill="#9572ae" stroke="#9572ae" stroke-width="1.51"/>
    <path d="M455,66L455,108L503,71Z" fill="#967eba" stroke="#967eba" stroke-width="1.51"/>
    <path d="M462,-50L465,-11L494,-46Z" fill="#b9cee3" stroke="#b9cee3" stroke-width="1.51"/>
    <path d="M465,-11L454,34L496,29Z" fill="#99b1d4" stroke="#99b1d4" stroke-width="1.51"/>
    <path d="M416,-49L421,-14L462,-50Z" fill="#bdd2e6" stroke="#bdd2e6" stroke-width="1.51"/>
    <path d="M421,25L454,34L465,-11Z" fill="#9bb4d6" stroke="#9bb4d6" stroke-width="1.51"/>
    <path d="M421,-14L421,25L465,-11Z" fill="#a4c0dc" stroke="#a4c0dc" stroke-width="1.51"/>
    <path d="M462,-50L421,-14L465,-11Z" fill="#b3cae2" stroke="#b3cae2" stroke-width="1.51"/>
    <path d="M415,65L424,111L455,66Z" fill="#9981bc" stroke="#9981bc" stroke-width="1.51"/>
    <path d="M455,66L424,111L455,108Z" fill="#9877b1" stroke="#9877b1" stroke-width="1.51"/>
    <path d="M59,109L-17,113L95,112Z" fill="#b084b1" stroke="#b084b1" stroke-width="1.51"/>
    <path d="M421,25L415,65L454,34Z" fill="#99a1cc" stroke="#99a1cc" stroke-width="1.51"/>
    <path d="M454,34L415,65L455,66Z" fill="#9894c6" stroke="#9894c6" stroke-width="1.51"/>
    <path d="M378,74L379,105L415,65Z" fill="#9d83bd" stroke="#9d83bd" stroke-width="1.51"/>
    <path d="M376,-48L374,-12L416,-49Z" fill="#c0d4e7" stroke="#c0d4e7" stroke-width="1.51"/>
    <path d="M416,-49L374,-12L421,-14Z" fill="#b7cde4" stroke="#b7cde4" stroke-width="1.51"/>
    <path d="M381,32L415,65L421,25Z" fill="#9ba3cd" stroke="#9ba3cd" stroke-width="1.51"/>
    <path d="M421,-14L374,-12L421,25Z" fill="#a7c2de" stroke="#a7c2de" stroke-width="1.51"/>
    <path d="M374,-12L381,32L421,25Z" fill="#a1b9d8" stroke="#a1b9d8" stroke-width="1.51"/>
    <path d="M415,65L379,105L424,111Z" fill="#9b7ab4" stroke="#9b7ab4" stroke-width="1.51"/>
    <path d="M381,32L378,74L415,65Z" fill="#9d96c7" stroke="#9d96c7" stroke-width="1.51"/>
    <path d="M338,-9L341,26L374,-12Z" fill="#aac4df" stroke="#aac4df" stroke-width="1.51"/>
    <path d="M341,-48L374,-12L376,-48Z" fill="#c2d5e7" stroke="#c2d5e7" stroke-width="1.51"/>
    <path d="M341,26L336,74L378,74Z" fill="#a098c8" stroke="#a098c8" stroke-width="1.51"/>
    <path d="M336,74L339,107L378,74Z" fill="#a083bb" stroke="#a083bb" stroke-width="1.51"/>
    <path d="M378,74L339,107L379,105Z" fill="#9e7bb4" stroke="#9e7bb4" stroke-width="1.51"/>
    <path d="M341,26L378,74L381,32Z" fill="#9fa3cd" stroke="#9fa3cd" stroke-width="1.51"/>
    <path d="M374,-12L341,26L381,32Z" fill="#a3bad9" stroke="#a3bad9" stroke-width="1.51"/>
    <path d="M341,-48L338,-9L374,-12Z" fill="#bbd0e4" stroke="#bbd0e4" stroke-width="1.51"/>
    <path d="M256,105L224,113L305,112Z" fill="#a178ab" stroke="#a178ab" stroke-width="1.51"/>
    <path d="M298,34L297,65L336,74Z" fill="#a49ac9" stroke="#a49ac9" stroke-width="1.51"/>
    <path d="M336,74L305,112L339,107Z" fill="#a27cb4" stroke="#a27cb4" stroke-width="1.51"/>
    <path d="M300,-9L338,-9L341,-48Z" fill="#bdd1e5" stroke="#bdd1e5" stroke-width="1.51"/>
    <path d="M295,-54L300,-9L341,-48Z" fill="#c7d9ea" stroke="#c7d9ea" stroke-width="1.51"/>
    <path d="M298,34L336,74L341,26Z" fill="#a3a4ce" stroke="#a3a4ce" stroke-width="1.51"/>
    <path d="M338,-9L300,-9L341,26Z" fill="#acc5df" stroke="#acc5df" stroke-width="1.51"/>
    <path d="M300,-9L298,34L341,26Z" fill="#a7bcda" stroke="#a7bcda" stroke-width="1.51"/>
    <path d="M297,65L305,112L336,74Z" fill="#a386be" stroke="#a386be" stroke-width="1.51"/>
    <path d="M295,-54L262,-13L300,-9Z" fill="#c2d5e8" stroke="#c2d5e8" stroke-width="1.51"/>
    <path d="M260,31L298,34L300,-9Z" fill="#a9bcda" stroke="#a9bcda" stroke-width="1.51"/>
    <path d="M262,-13L260,31L300,-9Z" fill="#b1c9e1" stroke="#b1c9e1" stroke-width="1.51"/>
    <path d="M297,65L265,71L305,112Z" fill="#a588bf" stroke="#a588bf" stroke-width="1.51"/>
    <path d="M265,71L256,105L305,112Z" fill="#a680b6" stroke="#a680b6" stroke-width="1.51"/>
    <path d="M264,-56L262,-13L295,-54Z" fill="#cedeec" stroke="#cedeec" stroke-width="1.51"/>
    <path d="M260,31L265,71L297,65Z" fill="#a79ecb" stroke="#a79ecb" stroke-width="1.51"/>
    <path d="M260,31L297,65L298,34Z" fill="#a6a8d0" stroke="#a6a8d0" stroke-width="1.51"/>
    <path d="M-22,-49L21,-47L61,-51Z" fill="#e7f1f6" stroke="#e7f1f6" stroke-width="1.51"/>
    <path d="M220,-5L223,32L260,31Z" fill="#aebfdc" stroke="#aebfdc" stroke-width="1.51"/>
    <path d="M220,-5L260,31L262,-13Z" fill="#b2cae1" stroke="#b2cae1" stroke-width="1.51"/>
    <path d="M222,-51L220,-5L262,-13Z" fill="#c5d7e9" stroke="#c5d7e9" stroke-width="1.51"/>
    <path d="M222,-51L262,-13L264,-56Z" fill="#cfdfec" stroke="#cfdfec" stroke-width="1.51"/>
    <path d="M215,74L256,105L265,71Z" fill="#a98bc1" stroke="#a98bc1" stroke-width="1.51"/>
    <path d="M260,31L223,32L265,71Z" fill="#a9a9d1" stroke="#a9a9d1" stroke-width="1.51"/>
    <path d="M223,32L215,74L265,71Z" fill="#ab9ecc" stroke="#ab9ecc" stroke-width="1.51"/>
    <path d="M215,74L224,113L256,105Z" fill="#aa82b7" stroke="#aa82b7" stroke-width="1.51"/>
    <path d="M138,104L95,112L178,111Z" fill="#ad81b1" stroke="#ad81b1" stroke-width="1.51"/>
    <path d="M184,28L178,69L215,74Z" fill="#aea2ce" stroke="#aea2ce" stroke-width="1.51"/>
    <path d="M183,-16L220,-5L222,-51Z" fill="#c8daea" stroke="#c8daea" stroke-width="1.51"/>
    <path d="M179,-51L183,-16L222,-51Z" fill="#d4e2ef" stroke="#d4e2ef" stroke-width="1.51"/>
    <path d="M220,-5L184,28L223,32Z" fill="#b1c2dd" stroke="#b1c2dd" stroke-width="1.51"/>
    <path d="M184,28L215,74L223,32Z" fill="#adacd3" stroke="#adacd3" stroke-width="1.51"/>
    <path d="M215,74L178,111L224,113Z" fill="#ac82b7" stroke="#ac82b7" stroke-width="1.51"/>
    <path d="M183,-16L184,28L220,-5Z" fill="#b8cee4" stroke="#b8cee4" stroke-width="1.51"/>
    <path d="M178,69L178,111L215,74Z" fill="#ae8dc2" stroke="#ae8dc2" stroke-width="1.51"/>
    <path d="M138,104L178,111L178,69Z" fill="#b088bb" stroke="#b088bb" stroke-width="1.51"/>
    <path d="M138,73L138,104L178,69Z" fill="#b292c5" stroke="#b292c5" stroke-width="1.51"/>
    <path d="M136,-52L141,-11L179,-51Z" fill="#d7e5f0" stroke="#d7e5f0" stroke-width="1.51"/>
    <path d="M179,-51L141,-11L183,-16Z" fill="#cedeec" stroke="#cedeec" stroke-width="1.51"/>
    <path d="M141,31L178,69L184,28Z" fill="#b1b0d5" stroke="#b1b0d5" stroke-width="1.51"/>
    <path d="M183,-16L141,-11L184,28Z" fill="#bcd1e5" stroke="#bcd1e5" stroke-width="1.51"/>
    <path d="M141,-11L141,31L184,28Z" fill="#b6c7e0" stroke="#b6c7e0" stroke-width="1.51"/>
    <path d="M141,31L138,73L178,69Z" fill="#b2a5cf" stroke="#b2a5cf" stroke-width="1.51"/>
    <path d="M17,106L-17,113L59,109Z" fill="#b486b4" stroke="#b486b4" stroke-width="1.51"/>
    <path d="M101,-55L100,-11L136,-52Z" fill="#dce8f2" stroke="#dce8f2" stroke-width="1.51"/>
    <path d="M138,73L103,68L138,104Z" fill="#b493c6" stroke="#b493c6" stroke-width="1.51"/>
    <path d="M136,-52L100,-11L141,-11Z" fill="#d0e0ed" stroke="#d0e0ed" stroke-width="1.51"/>
    <path d="M100,-11L99,28L141,-11Z" fill="#c0d4e7" stroke="#c0d4e7" stroke-width="1.51"/>
    <path d="M103,68L138,73L141,31Z" fill="#b4a6d0" stroke="#b4a6d0" stroke-width="1.51"/>
    <path d="M99,28L103,68L141,31Z" fill="#b5b4d7" stroke="#b5b4d7" stroke-width="1.51"/>
    <path d="M141,-11L99,28L141,31Z" fill="#b9c9e1" stroke="#b9c9e1" stroke-width="1.51"/>
    <path d="M103,68L95,112L138,104Z" fill="#b48bbd" stroke="#b48bbd" stroke-width="1.51"/>
    <path d="M63,67L59,109L95,112Z" fill="#b78cbe" stroke="#b78cbe" stroke-width="1.51"/>
    <path d="M56,30L63,67L99,28Z" fill="#b8b7d8" stroke="#b8b7d8" stroke-width="1.51"/>
    <path d="M58,-13L56,30L99,28Z" fill="#becde4" stroke="#becde4" stroke-width="1.51"/>
    <path d="M58,-13L99,28L100,-11Z" fill="#c3d6e8" stroke="#c3d6e8" stroke-width="1.51"/>
    <path d="M61,-51L58,-13L100,-11Z" fill="#d5e3ef" stroke="#d5e3ef" stroke-width="1.51"/>
    <path d="M61,-51L100,-11L101,-55Z" fill="#dde9f3" stroke="#dde9f3" stroke-width="1.51"/>
    <path d="M99,28L63,67L103,68Z" fill="#b7abd3" stroke="#b7abd3" stroke-width="1.51"/>
    <path d="M63,67L95,112L103,68Z" fill="#b795c7" stroke="#b795c7" stroke-width="1.51"/>
    <path d="M18,26L15,69L56,30Z" fill="#bbb9da" stroke="#bbb9da" stroke-width="1.51"/>
    <path d="M18,26L56,30L58,-13Z" fill="#bfcfe5" stroke="#bfcfe5" stroke-width="1.51"/>
    <path d="M17,-12L18,26L58,-13Z" fill="#c7d9ea" stroke="#c7d9ea" stroke-width="1.51"/>
    <path d="M15,69L17,106L59,109Z" fill="#ba8fbf" stroke="#ba8fbf" stroke-width="1.51"/>
    <path d="M21,-47L58,-13L61,-51Z" fill="#deeaf3" stroke="#deeaf3" stroke-width="1.51"/>
    <path d="M15,69L59,109L63,67Z" fill="#ba97c9" stroke="#ba97c9" stroke-width="1.51"/>
    <path d="M56,30L15,69L63,67Z" fill="#baacd4" stroke="#baacd4" stroke-width="1.51"/>
    <path d="M21,-47L17,-12L58,-13Z" fill="#d7e4ef" stroke="#d7e4ef" stroke-width="1.51"/>
    <path d="M-24,33L-19,74L15,69Z" fill="#beacd3" stroke="#beacd3" stroke-width="1.51"/>
    <path d="M15,69L-19,74L17,106Z" fill="#bc98c9" stroke="#bc98c9" stroke-width="1.51"/>
    <path d="M-22,-49L-21,-7L17,-12Z" fill="#d9e6f0" stroke="#d9e6f0" stroke-width="1.51"/>
    <path d="M-24,33L15,69L18,26Z" fill="#bdb9da" stroke="#bdb9da" stroke-width="1.51"/>
    <path d="M17,-12L-21,-7L18,26Z" fill="#c7d9ea" stroke="#c7d9ea" stroke-width="1.51"/>
    <path d="M-22,-49L17,-12L21,-47Z" fill="#e0ebf4" stroke="#e0ebf4" stroke-width="1.51"/>
    <path d="M-19,74L-17,113L17,106Z" fill="#bc8ebf" stroke="#bc8ebf" stroke-width="1.51"/>
    <path d="M-21,-7L-24,33L18,26Z" fill="#c2cfe4" stroke="#c2cfe4" stroke-width="1.51"/>
    <path d="M-64,-45L-65,-14L-22,-49Z" fill="#e4eef5" stroke="#e4eef5" stroke-width="1.51"/>
    <path d="M-63,31L-24,33L-21,-7Z" fill="#c3cfe5" stroke="#c3cfe5" stroke-width="1.51"/>
    <path d="M-65,-14L-63,31L-21,-7Z" fill="#cadbeb" stroke="#cadbeb" stroke-width="1.51"/>
    <path d="M-22,-49L-65,-14L-21,-7Z" fill="#dae7f1" stroke="#dae7f1" stroke-width="1.51"/>
    <path d="M-24,33L-63,70L-19,74Z" fill="#bfadd4" stroke="#bfadd4" stroke-width="1.51"/>
    <path d="M-63,70L-62,110L-19,74Z" fill="#bf99c9" stroke="#bf99c9" stroke-width="1.51"/>
    <path d="M-19,74L-62,110L-17,113Z" fill="#bd8ebf" stroke="#bd8ebf" stroke-width="1.51"/>
    <path d="M-63,31L-63,70L-24,33Z" fill="#c0b9da" stroke="#c0b9da" stroke-width="1.51"/>
    <path d="M-63,31L-65,-14L-63,70Z" fill="#c1c8e1" stroke="#c1c8e1" stroke-width="1.51"/>
</svg>